<?xml version="1.0" encoding="utf-8"?>
<!-- Generator: Adobe Illustrator 21.0.0, SVG Export Plug-In . SVG Version: 6.00 Build 0)  -->
<svg version="1.1" id="Layer_1" xmlns="http://www.w3.org/2000/svg" xmlns:xlink="http://www.w3.org/1999/xlink" x="0px" y="0px"
	 viewBox="0 0 200 107.7" style="enable-background:new 0 0 200 107.7;" xml:space="preserve">
<style type="text/css">
	.st0{fill:#0A9748;}
	.st1{opacity:0.15;}
</style>
<path class="st0" d="M110.4,24.6c-1.3,0.6-2.5,1.3-3.8,2c-5.9,3.5-13.2,8.8-21.6,15C72.5,50.8,57.3,61.7,40,71.6
	c41.4-7.2,80.5-22.4,114.6-44.9C142,18.7,125.4,17.6,110.4,24.6z"/>
<path class="st0" d="M41.3,82.5c39.1,3.9,74.9,1.7,94.6-7.2c2-0.8,3.6-1.6,5.2-2.4c11-6,18-14.6,19.6-24.1c0.8-5,0-9.8-2.2-14.2
	C123.7,58,83.7,74.4,41.3,82.5z"/>
<path d="M187.9,2.1c-2.8-2.8-7.3-2.8-10.1,0c-6.8,6.8-14.2,13-21.8,18.9c-0.6,0.5-1.5,0.5-2.1,0c-14.4-11-34.4-13.2-52.1-5
	c-1.4,0.7-2.8,1.4-4.2,2.2c0,0,0,0-0.1,0c-5.3,3.2-11.3,7.5-18.2,12.6C60.7,44.4,35.4,62.9,5.5,70.3c-0.2,0.1-0.9,0.3-1.1,0.4
	c-0.8,0.4-1.5,0.7-2.5,1.8c-0.4,0.5-1,1.3-1.4,2.1C0.2,75.4,0,76.2,0,77.1c0,1.3,0.5,2.6,0.5,2.6c0.1,0.3,0.3,0.5,0.4,0.7
	c0.3,0.5,0.6,1,0.9,1.4c0.2,0.2,0.4,0.4,0.7,0.6c0.4,0.3,0.8,0.6,1.3,0.9c0.3,0.2,0.6,0.3,0.9,0.4c0.2,0,0.3,0.2,0.5,0.2
	c2.9,0.8,6.2,1.4,9.2,2.2c23.1,5.5,49.5,9.1,73.6,9.1c20.5,0,39.2-2.5,52.3-8.5c1.8-0.7,3.6-1.6,5.3-2.5c12.8-7,20.9-17.5,22.8-29.6
	c1.2-7.3-0.1-14.6-3.4-21c-0.4-0.8-0.2-1.7,0.4-2.2c7.8-6,15.4-12.4,22.4-19.4c0.7-0.7,1.2-1.6,1.6-2.4C190.5,7.2,190,4.2,187.9,2.1
	z M87.6,42.4c6.6-4.9,12.4-9,17.1-11.8c1-0.6,2-1.1,3-1.6c11.9-5.5,25-4.6,35,1.7c-27,17.8-58,29.8-90.7,35.5
	C65.6,58.4,77.6,49.7,87.6,42.4z M154.4,52.5c-1.2,7.7-6.8,14.6-15.5,19.4c-1.3,0.7-2.6,1.3-4.2,1.9c-15.7,7.1-44.1,8.9-75.2,5.8
	c33.7-6.6,65.4-19.7,93.1-38.4C154.4,44.6,155,48.5,154.4,52.5z"/>
<path class="st1" d="M198.1,21.3c2.7-2.9,2.5-7.4-0.3-10.1c-2.1-2-5.1-2.4-7.6-1.4c-0.3,0.9-0.8,1.7-1.6,2.4
	c-7,7-14.5,13.4-22.4,19.4c-0.7,0.5-0.8,1.4-0.4,2.2c3.4,6.4,4.6,13.7,3.4,21c-2,12.1-10,22.6-22.8,29.6c-1.8,1-3.5,1.8-5.3,2.5
	c-13.1,6-31.8,8.5-52.3,8.5c-24.1,0-50.4-3.6-73.6-9.1c-0.2,0.1-0.3,0.2-0.5,0.3c-0.2,0.2-0.5,0.4-0.7,0.7c-0.4,0.4-0.7,0.9-0.9,1.4
	c-0.1,0.2-0.3,0.5-0.4,0.7c-0.3,0.8-0.5,1.7-0.5,2.6c0,0,0,0,0,0v0c0,0.1,0,0.1,0,0.2c0,0.8,0.2,1.6,0.5,2.4
	c0.1,0.3,0.3,0.5,0.4,0.8c0.3,0.5,0.6,1,0.9,1.4c0.2,0.2,0.5,0.4,0.7,0.7c0.4,0.3,0.8,0.6,1.3,0.9c0.3,0.2,0.6,0.3,0.9,0.4
	c0.2,0.1,0.4,0.2,0.6,0.3c22.7,5.4,49.8,8.8,74.8,8.8c23.7,0,45.6-3.1,60.3-10.3c1.8-0.8,3.5-1.7,5.2-2.7
	c12.5-7.4,20.3-18.2,21.9-30.3c1-7.3-0.5-14.5-4-20.8c-0.4-0.7-0.3-1.6,0.4-2.2C184,35.1,191.3,28.5,198.1,21.3"/>
<g>
</g>
<g>
</g>
<g>
</g>
<g>
</g>
<g>
</g>
<g>
</g>
</svg>
