<?xml version="1.0" standalone="no"?>
<!DOCTYPE svg PUBLIC "-//W3C//DTD SVG 20010904//EN"
 "http://www.w3.org/TR/2001/REC-SVG-20010904/DTD/svg10.dtd">
<svg version="1.0" xmlns="http://www.w3.org/2000/svg"
 width="700.000000pt" height="700.000000pt" viewBox="0 0 700.000000 700.000000"
 preserveAspectRatio="xMidYMid meet">
<metadata>
Created by potrace 1.11, written by Peter Selinger 2001-2013
</metadata>
<g transform="translate(0.000000,700.000000) scale(0.100000,-0.100000)"
fill="#000000" stroke="none">
<path d="M6620 5043 c-65 -22 -75 -29 -240 -187 -217 -206 -623 -536 -659
-536 -10 0 -45 19 -77 43 -185 135 -457 254 -645 282 -24 4 -46 8 -50 10 -15
10 -176 20 -304 20 -209 0 -332 -18 -520 -74 -145 -43 -350 -132 -391 -169
-11 -9 -87 -62 -169 -116 -83 -54 -266 -183 -409 -285 -427 -308 -543 -389
-726 -511 -397 -265 -734 -458 -1065 -610 -233 -107 -477 -198 -713 -265 -85
-25 -158 -42 -162 -40 -5 3 -14 0 -22 -7 -7 -7 -30 -26 -50 -41 -21 -15 -40
-38 -44 -51 -3 -15 -24 -33 -53 -49 -80 -44 -101 -69 -101 -122 0 -47 22 -105
40 -105 6 0 10 -7 10 -15 0 -9 10 -19 23 -24 12 -5 30 -18 41 -30 10 -11 22
-18 27 -16 4 3 13 -1 21 -8 10 -10 198 -52 333 -74 11 -2 56 -12 100 -23 44
-10 112 -26 150 -35 83 -19 385 -81 435 -89 48 -7 210 -35 240 -41 14 -3 45
-8 70 -11 25 -3 52 -7 60 -9 8 -2 38 -7 65 -10 28 -3 75 -10 105 -15 30 -5 75
-12 100 -14 41 -4 86 -10 180 -21 87 -11 118 -15 297 -30 298 -25 402 -29 803
-30 336 0 586 8 651 20 9 2 56 6 105 10 49 4 91 8 94 10 3 2 30 6 60 10 213
25 446 75 640 137 126 40 456 179 525 221 194 119 326 228 450 371 58 67 155
199 155 210 0 3 14 28 30 57 68 113 134 314 147 443 11 106 3 321 -13 347 -2
4 -6 24 -10 44 -6 41 -71 233 -84 250 -4 6 -10 22 -14 37 -8 34 -12 29 185
185 85 67 165 131 179 143 151 130 234 204 299 265 194 182 227 226 235 302
12 132 -113 254 -259 252 -33 0 -67 -3 -75 -6z"/>
</g>
</svg>
